<svg viewBox="34 34 92 92" fill="none" xmlns="http://www.w3.org/2000/svg">
  <g transform="translate(62.5, 63.2) scale(1.4)">
    <path d="M5 5a2 2 0 0 1 3.008-1.728l11.997 6.998a2 2 0 0 1 .003 3.458l-12 7A2 2 0 0 1 5 19z" fill="#8b5cf6"/>
  </g>
  <path d="M 101.5 69.4 A 13 13 0 0 1 101.5 90.6" stroke="#8b5cf6" stroke-width="6" stroke-linecap="round"/>
  <path d="M 107.2 61.2 A 23 23 0 0 1 107.2 98.8" stroke="#8b5cf6" stroke-width="6" stroke-linecap="round"/>
  <path d="M 58.5 69.4 A 13 13 0 0 0 58.5 90.6" stroke="#8b5cf6" stroke-width="6" stroke-linecap="round"/>
  <path d="M 52.8 61.2 A 23 23 0 0 0 52.8 98.8" stroke="#8b5cf6" stroke-width="6" stroke-linecap="round"/>
</svg>
